<svg xmlns="http://www.w3.org/2000/svg" version="1.0" width="512.000000pt" height="512.000000pt" viewBox="0 0 512.000000 512.000000" preserveAspectRatio="xMidYMid meet" transform="matrix(1, 0, 0, -1, 0, 0)">

<g transform="translate(0.000000,512.000000) scale(0.100000,-0.100000)" fill="#1a2e35" stroke="none">
<path d="M769 4596 c-102 -27 -181 -95 -228 -196 l-26 -55 0 -1785 0 -1785 26 -56 c37 -79 90 -133 167 -171 l67 -33 1785 0 1785 0 67 33 c77 38 130 92 167 171 l26 56 0 1785 0 1785 -33 67 c-38 77 -92 130 -171 167 l-56 26 -1765 2 c-1378 1 -1775 -1 -1811 -11z m2566 -759 l760 -423 0 -854 0 -854 -760 -423 c-418 -232 -766 -423 -773 -423 -7 0 -202 105 -432 233 l-420 232 0 845 1 845 415 230 c229 127 422 231 429 233 8 2 203 -102 434 -230 l421 -233 0 -455 0 -455 -420 -232 c-230 -128 -425 -233 -432 -232 -7 0 -47 20 -88 43 l-75 44 -3 440 -2 441 81 45 c45 25 86 46 93 45 6 0 45 -19 86 -43 l75 -44 5 -245 5 -246 165 92 165 92 0 255 0 255 -245 137 c-135 75 -252 137 -260 137 -8 0 -125 -62 -260 -137 l-245 -138 -2 -644 -3 -645 245 -135 c135 -74 251 -136 259 -138 8 -2 281 144 605 325 l591 328 0 655 0 655 -589 328 c-325 180 -595 327 -601 327 -6 0 -276 -147 -601 -327 l-589 -328 0 -849 c0 -674 -3 -847 -12 -843 -7 3 -85 45 -173 95 l-160 89 0 853 0 853 760 423 c418 233 767 423 775 423 8 0 357 -190 775 -422z" fill="#1a2e35"/>
</g>
</svg>